<svg width="74" height="61" viewBox="0 0 74 61" fill="none" xmlns="http://www.w3.org/2000/svg">
<g clip-path="url(#clip0_3802_27744)">
<path d="M62.21 45.0997H72.58L64.64 52.7197L72.58 59.8597H53.61L57.75 54.5097V39.4297H15.84V54.5097L19.97 59.8597H1L8.94 52.7197L1 45.0997H11.37" stroke="#E3AB63" stroke-width="2" stroke-linecap="round" stroke-linejoin="round"/>
<path d="M15.9999 34.9896C14.1806 31.4338 13.3038 27.4707 13.4534 23.4793C13.603 19.4879 14.774 15.6015 16.8544 12.1919C18.9349 8.78223 21.8552 5.96326 25.3361 4.00448C28.8171 2.0457 32.7423 1.0126 36.7365 1.00396C40.7308 0.995324 44.6604 2.01142 48.1498 3.95513C51.6392 5.89884 54.5717 8.70517 56.6668 12.1058C58.762 15.5064 59.9498 19.3877 60.1166 23.3784C60.2835 27.3692 59.4239 31.336 57.6199 34.8997" stroke="#E3AB63" stroke-width="2" stroke-linecap="round" stroke-linejoin="round"/>
<path d="M22.2602 34.9697C20.3002 32.2882 19.1204 29.1168 18.8512 25.8064C18.582 22.4959 19.2341 19.1756 20.7351 16.2127C22.2362 13.2499 24.5278 10.7602 27.3562 9.01907C30.1847 7.27797 33.4397 6.35339 36.7611 6.34768C40.0824 6.34198 43.3406 7.25535 46.1751 8.98672C49.0095 10.7181 51.3096 13.1999 52.8208 16.1576C54.332 19.1152 54.9955 22.4334 54.7377 25.7447C54.4799 29.0561 53.311 32.2315 51.3602 34.9197" stroke="#E3AB63" stroke-width="2" stroke-linecap="round" stroke-linejoin="round"/>
<path d="M36.7899 12.6719L39.3599 20.5919H47.6899L40.9499 25.4819L43.5199 33.3919L36.7899 28.5019L30.0599 33.3919L32.6299 25.4819L25.8999 20.5919H34.2199L36.7899 12.6719Z" stroke="#E3AB63" stroke-width="2" stroke-linecap="round" stroke-linejoin="round"/>
<path d="M16 54.2617H57.59" stroke="#E3AB63" stroke-width="2" stroke-linecap="round" stroke-linejoin="round"/>
</g>
<defs>
<clipPath id="clip0_3802_27744">
<rect width="73.58" height="60.86" fill="white"/>
</clipPath>
</defs>
</svg>
