<svg width="67" height="65" viewBox="0 0 67 65" fill="none" xmlns="http://www.w3.org/2000/svg">
<path d="M50.4453 16.8104L57.0801 18.9018L64.8136 11.1401L58.1788 9.04688" stroke="#E3AB63" stroke-width="2" stroke-linecap="round" stroke-linejoin="round"/>
<path d="M50.4029 23.0438C53.9628 28.5059 55.3764 35.0997 54.3698 41.548C53.3633 47.9963 50.0082 53.8402 44.9544 57.948C39.9006 62.0557 33.5078 64.1349 27.014 63.7829C20.5202 63.4309 14.3877 60.6727 9.80413 56.0426C5.22056 51.4124 2.51215 45.2398 2.20345 38.7202C1.89475 32.2006 4.00773 25.798 8.13315 20.7525C12.2586 15.7069 18.1029 12.3775 24.5341 11.409C30.9653 10.4405 37.5258 11.9019 42.945 15.5101" stroke="#E3AB63" stroke-width="2" stroke-linecap="round" stroke-linejoin="round"/>
<path d="M45.1497 28.3153C47.3465 32.3562 48.016 37.0572 47.0351 41.5539C46.0542 46.0507 43.4888 50.0409 39.8107 52.7909C36.1326 55.5409 31.589 56.8658 27.0153 56.5221C22.4415 56.1783 18.1452 54.189 14.9162 50.9198C11.6872 47.6507 9.74261 43.3215 9.43996 38.7283C9.1373 34.1351 10.4969 29.5866 13.2689 25.9192C16.0408 22.2517 20.0387 19.7119 24.5275 18.7666C29.0163 17.8214 33.6942 18.5342 37.7011 20.7742" stroke="#E3AB63" stroke-width="2" stroke-linecap="round" stroke-linejoin="round"/>
<path d="M39.6841 33.8027C40.5066 36.3458 40.4494 39.0931 39.522 41.5995C38.5946 44.1059 36.8512 46.2247 34.5742 47.6126C32.2973 49.0004 29.6201 49.576 26.9765 49.2462C24.3329 48.9164 21.8776 47.7005 20.0085 45.7954C18.1394 43.8902 16.9659 41.4076 16.6781 38.7495C16.3903 36.0915 17.0051 33.4138 18.4229 31.1502C19.8407 28.8866 21.9784 27.1698 24.4897 26.2777C27.001 25.3857 29.7389 25.3708 32.2597 26.2354" stroke="#E3AB63" stroke-width="2" stroke-linecap="round" stroke-linejoin="round"/>
<path d="M32.8466 38.8328C32.6115 39.5949 32.1842 40.2832 31.6061 40.8309C31.028 41.3786 30.3187 41.7671 29.547 41.9588C28.7753 42.1504 27.9674 42.1387 27.2015 41.9248C26.4357 41.7109 25.7379 41.3021 25.1757 40.7379C24.6136 40.1737 24.2063 39.4734 23.9931 38.7047C23.78 37.936 23.7684 37.1252 23.9593 36.3507C24.1503 35.5761 24.5374 34.8643 25.0831 34.2841C25.6288 33.7039 26.3145 33.275 27.0739 33.0391" stroke="#E3AB63" stroke-width="2" stroke-linecap="round" stroke-linejoin="round"/>
<path d="M28.7793 37.2304L61.5698 4.32031" stroke="#E3AB63" stroke-width="2" stroke-linecap="round" stroke-linejoin="round"/>
<path d="M49.2502 15.6082L47.1646 8.9492L54.898 1.1875L56.9836 7.84652" stroke="#E3AB63" stroke-width="2" stroke-linecap="round" stroke-linejoin="round"/>
</svg>
