<svg width="64" height="58" viewBox="0 0 64 58" fill="none" xmlns="http://www.w3.org/2000/svg">
<path d="M58.9 29.5483C62.2799 26.1879 63.1345 22.2366 62.4626 18.3981C61.7906 14.5595 59.5939 10.8301 56.8731 7.91523C55.1397 6.03005 53.1266 4.42032 50.9038 3.14203C48.1374 1.59825 39.4656 -0.661971 33.7939 4.83311L22.0252 16.4961C18.8479 19.6455 26.8641 22.6912 30.9216 18.709L33.887 15.7996C38.2695 11.8447 43.7713 19.7709 50.6317 14.3795M5.24761 27.7099C2.14336 24.6187 1.04774 20.9983 1.3819 17.4507C1.71606 13.9031 3.4581 10.4282 6.00906 7.63157C8.56002 4.83493 11.9199 2.70381 15.4752 1.851C19.0305 0.998187 22.7793 1.42005 26.1246 3.71846M42.7287 21.3093L55.3082 34.4396C58.4015 37.6709 53.8072 43.8187 49.8301 39.742L42.725 32.4485M36.5348 37.3581L44.3447 45.3462C47.4709 48.5447 53.7999 43.8169 49.8228 39.7365L42.19 31.8939M41.1784 50.8685C43.8846 50.2885 45.36 46.4408 43.2747 44.2606M13.5761 39.6874C12.1719 41.0858 9.76886 40.693 8.36099 39.291L7.94465 38.8764C7.26845 38.1974 6.88905 37.2798 6.88905 36.3235C6.88905 35.3672 7.26845 34.4496 7.94465 33.7705L13.3333 28.4009C14.0147 27.7266 14.9364 27.3482 15.897 27.3482C16.8577 27.3482 17.7793 27.7266 18.4608 28.4009L18.8771 28.8155C20.285 30.2174 20.4621 32.8031 19.0597 34.2014L13.5761 39.6874ZM19.7518 45.048C18.3457 46.4463 15.6395 46.3426 14.2335 44.9425L13.8172 44.5279C13.1406 43.8494 12.761 42.932 12.761 41.9758C12.761 41.0197 13.1406 40.1023 13.8172 39.4238L22.4141 30.8611C23.0956 30.1869 24.0172 29.8085 24.9778 29.8085C25.9385 29.8085 26.8601 30.1869 27.5416 30.8611L27.9579 31.2757C29.9793 33.2868 29.0006 35.7798 26.4076 38.46L19.7518 45.048ZM25.9201 50.2885C24.5122 51.6904 21.859 51.6522 20.4511 50.2521L20.033 49.8357C19.3564 49.1572 18.9768 48.2398 18.9768 47.2836C18.9768 46.3275 19.3564 45.4101 20.033 44.7316L25.9292 38.8619C26.6104 38.1878 27.5317 37.8094 28.4921 37.8094C29.4524 37.8094 30.3737 38.1878 31.0549 38.8619L31.4712 39.2765C33.3794 41.1749 32.6125 43.5915 30.2094 46.0844L25.9201 50.2885ZM34.8457 46.4936L35.262 46.9081C35.9356 47.5886 36.3132 48.5057 36.3132 49.4611C36.3132 50.4166 35.9356 51.3336 35.262 52.0141L31.6428 55.6181C30.9595 56.2888 30.0386 56.6648 29.0791 56.6648C28.1196 56.6648 27.1987 56.2888 26.5154 55.6181L26.099 55.2035C25.4228 54.5244 25.0434 53.6068 25.0434 52.6505C25.0434 51.6942 25.4228 50.7766 26.099 50.0975L29.7182 46.4936C30.3999 45.8198 31.3215 45.4417 32.2819 45.4417C33.2424 45.4417 34.164 45.8198 34.8457 46.4936Z" stroke="#E3AB63" stroke-width="2" stroke-linecap="round" stroke-linejoin="round"/>
</svg>
